# xmcd
#
# Track frame offsets: 
#        150
#        14498
#        27240
#        40578
#        54311
#        68251
#        79527
#        94939
#        126692
#        162222
#        191720
#        227182
#        269684
#        281513
#        294808
#        306467
#        320024
#        333923
#        345156
#
# Disc length: 4787 seconds
#
# Revision: 0
# Processed by: cddbd v1.4PL0 Copyright (c) Steve Scherf et al.
# Submitted via: ExactAudioCopy v0.90b4
#
DISCID=0b12b113
DTITLE=Various Artist - Blue On Blues [CD1]
DYEAR=1900
DGENRE=Blues
TTITLE0=Lightnin' Hopkins/West Texas Blues
TTITLE1=Lightnin' Hopkins/I Hate I Got Married
TTITLE2=Lightnin' Hopkins/Little Boy Blue
TTITLE3=Lightnin' Hopkins/Jailhouse Blues
TTITLE4=Lightnin' Hopkins/Katie Mae
TTITLE5=Lightnin' Hopkins/Pneumonia Blues
TTITLE6=John Lee Hooker/Sally Mae
TTITLE7=John Lee Hooker/Rock WIth Me
TTITLE8=John Lee Hooker/Hobo Blues
TTITLE9=John Lee Hooker/Should've Been Gone
TTITLE10=John Lee Hooker/Hard Times
TTITLE11=John Lee Hooker/I Hate The Days I Was Born
TTITLE12=Buddy Guy/You Sure Can't Do
TTITLE13=Buddy Guy/This Is The End
TTITLE14=Buddy Guy/Try To Quit You Baby
TTITLE15=Buddy Guy/Sit And Cray (The Blues)
TTITLE16=Otis Rush/I Can't Quit You Baby
TTITLE17=Otis Rush/Keep On Loving Me Baby
TTITLE18=Otis Rush/My Love Will Never Die
EXTD=
EXTT0=
EXTT1=
EXTT2=
EXTT3=
EXTT4=
EXTT5=
EXTT6=
EXTT7=
EXTT8=
EXTT9=
EXTT10=
EXTT11=
EXTT12=
EXTT13=
EXTT14=
EXTT15=
EXTT16=
EXTT17=
EXTT18=
PLAYORDER=
